<svg width="160" height="64" viewBox="0 0 160 64" fill="none" xmlns="http://www.w3.org/2000/svg">
<g clip-path="url(#clip0)">
<path d="M53.0714 27.9381C53.0714 25.2085 50.4247 22.3129 45.8358 22.3129C40.6807 22.3129 35.0263 26.0869 34.1511 33.6283C33.2678 41.2527 38.0146 44.6217 42.7841 44.6217C47.552 44.6217 50.062 42.7639 52.611 40.2735C50.4101 37.5015 47.5715 38.7915 47.0347 39.0616C46.4409 39.3592 45.6617 39.7708 44.0789 39.7708C42.231 39.7708 40.357 38.9347 40.357 35.5039C52.1702 34.3717 53.0714 30.6693 53.0714 27.9381ZM47.2169 28.3952C47.1404 29.2362 46.7955 30.6921 40.8174 31.4925C42.0781 27.0157 44.4824 26.6839 45.5934 26.6839C46.6345 26.6839 47.2982 27.4907 47.2169 28.3952ZM27.2083 29.1223C27.2083 29.1223 24.6674 37.09 24.4705 37.7586C24.4022 37.09 22.5429 22.7782 22.5429 22.7782C18.2158 22.7782 15.901 25.8527 14.681 29.1191C14.681 29.1191 11.5902 37.1095 11.3397 37.7781C11.3251 37.1518 10.8647 29.2021 10.8647 29.2021C10.6028 25.2068 6.95574 22.7879 4 22.7879L7.55437 44.4704C12.0945 44.4557 14.5248 41.3861 15.8067 38.1262C15.8067 38.1262 18.5249 31.076 18.6372 30.7556C18.6648 31.0614 20.5925 44.4704 20.5925 44.4704C25.1359 44.4704 27.5873 41.596 28.9066 38.4532L35.2817 22.7879C30.792 22.7879 28.4283 25.8543 27.2083 29.1223ZM69.7582 22.2836C66.9652 22.2836 64.813 23.8014 63.0009 26.0446L63.0041 26.0283L64.6146 13C60.8959 13 57.8572 16.2372 57.2797 21.0392L54.4509 44.3012C56.5965 44.3012 58.869 43.6782 60.0955 42.1019C61.1936 43.5122 62.8252 44.6363 65.2408 44.6363C71.5118 44.6363 75.8226 37.347 75.8226 30.5034C75.8226 24.2585 72.7839 22.2836 69.7582 22.2836ZM69.1824 33.4592C68.5317 37.2852 66.4056 39.8651 64.3461 39.8651C62.2705 39.8651 61.3937 38.9477 61.3937 38.9477C61.7808 35.6032 62.0378 33.5519 62.7943 31.7853C63.5491 30.0187 65.3336 27.1996 67.201 27.1996C69.0164 27.1996 69.8331 29.6348 69.1824 33.4592ZM91.5432 22.7896H87.1527L87.1738 22.5602C87.4731 19.6939 88.1596 18.1892 90.3817 17.9582C91.8994 17.8021 92.5859 17.0131 92.7453 16.1607C92.8706 15.4921 93.2951 13.1285 93.2951 13.1285C84.4881 13.0781 81.7276 16.8797 81.0232 22.6578L81.0069 22.7879L80.9207 22.7912C79.4908 22.7912 77.9211 24.4098 77.6461 26.4659L77.5502 27.2223H80.4783L78.0203 47.5709L77.2753 51.2277L77.5778 51.2375C81.6885 51.0813 84.3336 47.8393 84.9176 43.1186L86.8371 27.2223H88.2133C89.5602 27.2223 91.143 25.8722 91.4358 23.6159L91.5432 22.7896ZM114.327 22.4122C109.268 22.4122 104.5 26.1357 103.034 31.9935C101.57 37.8497 103.796 44.7648 111.231 44.7648C118.669 44.7648 122.942 37.5568 122.942 31.5722C122.942 25.5842 118.895 22.4122 114.327 22.4122ZM116.378 33.2851C116.116 35.9415 114.945 39.9546 111.744 39.9546C108.529 39.9546 108.986 35.2453 109.297 33.0102C109.631 30.614 110.977 27.2223 113.842 27.2223C116.43 27.2223 116.674 30.2854 116.378 33.2851ZM147.925 29.1223C147.925 29.1223 145.384 37.09 145.189 37.7586C145.119 37.09 143.26 22.7782 143.26 22.7782C138.933 22.7782 136.619 25.8527 135.398 29.1191C135.398 29.1191 132.309 37.1095 132.058 37.7781C132.043 37.1518 131.583 29.2021 131.583 29.2021C131.321 25.2068 127.672 22.7879 124.718 22.7879L128.271 44.4704C132.811 44.4557 135.243 41.3861 136.525 38.1262C136.525 38.1262 139.243 31.076 139.355 30.7556C139.383 31.0614 141.309 44.4704 141.309 44.4704C145.853 44.4704 148.304 41.596 149.623 38.4532L156 22.7879C151.509 22.7879 149.145 25.8543 147.925 29.1223ZM95.675 13.1285L91.9889 42.8583L91.9791 42.8534L91.2308 46.5298L91.5318 46.5395C95.5009 46.4907 98.3168 43.008 98.8471 38.6158L100.976 21.5516C101.622 16.3543 98.5234 13.1285 95.675 13.1285Z" fill="black"/>
</g>
<defs>
<clipPath id="clip0">
<rect width="152" height="38.2374" fill="white" transform="translate(4 13)"/>
</clipPath>
</defs>
</svg>
